<?xml version="1.0" encoding="iso-8859-1"?>
<!-- Uploaded to: SVG Repo, www.svgrepo.com, Generator: SVG Repo Mixer Tools -->
<!DOCTYPE svg PUBLIC "-//W3C//DTD SVG 1.1//EN" "http://www.w3.org/Graphics/SVG/1.1/DTD/svg11.dtd">
<svg fill="#000000" version="1.1" id="Capa_1" xmlns="http://www.w3.org/2000/svg" xmlns:xlink="http://www.w3.org/1999/xlink" 
	 width="800px" height="800px" viewBox="0 0 471.197 471.197"
	 xml:space="preserve">
<g>
	<g>
		<path d="M61.943,322.971h73.496c6.816,0,12.342-5.525,12.342-12.342v-45.875c0-6.816-5.525-12.342-12.342-12.342H61.943
			c-6.816,0-12.342,5.525-12.342,12.342v45.875C49.601,317.445,55.126,322.971,61.943,322.971z M74.285,277.096h48.812v21.191
			H74.285V277.096z"/>
		<path d="M297.43,238.914H174.435c-6.816,0-12.342,5.525-12.342,12.342v65.998c0,6.815,5.525,12.342,12.342,12.342H297.43
			c6.816,0,12.342-5.526,12.342-12.342v-65.998C309.771,244.439,304.246,238.914,297.43,238.914z M285.088,304.911h-98.311v-41.313
			h98.311V304.911L285.088,304.911z"/>
		<path d="M120.411,189.182h231.042c6.814,0,12.342-5.526,12.342-12.342V88.185c0-6.816-5.525-12.342-12.342-12.342H120.411
			c-6.816,0-12.342,5.526-12.342,12.342v88.655C108.07,183.657,113.595,189.182,120.411,189.182z M132.753,100.528h206.356v63.971
			H132.753V100.528z"/>
		<path d="M428.238,182.098h22.029c6.904,0,12.5-5.596,12.5-12.5v-59.5c0-6.904-5.596-12.5-12.5-12.5h-32.742V61.321
			c0-3.273-1.301-6.413-3.615-8.727l-26.865-26.866c-2.314-2.314-5.453-3.615-8.729-3.615H93.546c-3.273,0-6.412,1.3-8.727,3.615
			L57.954,52.594c-2.314,2.314-3.615,5.454-3.615,8.727v36.277H21.277c-6.903,0-12.5,5.596-12.5,12.5v59.5
			c0,6.904,5.597,12.5,12.5,12.5h22.172L3.504,223.076C1.258,225.381,0,228.472,0,231.691v126.261
			c0,6.815,5.525,12.342,12.342,12.342h12.307v66.446c0,6.816,5.525,12.344,12.342,12.344h70.908
			c6.816,0,12.342-5.527,12.342-12.344v-66.288h231.388v66.288c0,6.816,5.523,12.344,12.342,12.344h70.908
			c6.814,0,12.342-5.527,12.342-12.344v-66.446h11.635c6.816,0,12.342-5.526,12.342-12.342V231.691c0-3.192-1.236-6.26-3.451-8.56
			L428.238,182.098z M417.889,122.598h19.879v34.5h-19.879V122.598z M33.777,122.598h19.879v34.5H33.777V122.598z M24.683,236.711
			l50.836-52.15c2.246-2.305,3.504-5.396,3.504-8.615V66.433l19.636-19.636h274.548l19.635,19.636v109.513
			c0,3.192,1.238,6.26,3.451,8.56l50.219,52.161V345.61h-4.527c-0.617-0.095-1.246-0.158-1.891-0.158H31.102
			c-0.645,0-1.273,0.063-1.892,0.158h-4.527V236.711z M95.556,424.398H49.331v-53.946h46.225V424.398z M376.311,424.398v-53.946
			h46.225v53.946H376.311z"/>
		<path d="M324.086,264.754v45.875c0,6.816,5.523,12.342,12.342,12.342h73.496c6.814,0,12.342-5.525,12.342-12.342v-45.875
			c0-6.816-5.525-12.342-12.342-12.342h-73.496C329.611,252.412,324.086,257.938,324.086,264.754z M348.77,277.096h48.812v21.191
			H348.77V277.096z"/>
	</g>
</g>
</svg>