<?xml version="1.0" encoding="iso-8859-1"?>

<!DOCTYPE svg PUBLIC "-//W3C//DTD SVG 1.1//EN" "http://www.w3.org/Graphics/SVG/1.1/DTD/svg11.dtd">
<!-- Uploaded to: SVG Repo, www.svgrepo.com, Generator: SVG Repo Mixer Tools -->
<svg version="1.1" id="_x35_" xmlns="http://www.w3.org/2000/svg" xmlns:xlink="http://www.w3.org/1999/xlink" 
	 viewBox="0 0 512 512"  xml:space="preserve">
<g>
	<g>
		<polygon style="fill:#C7BA70;" points="172.609,47.366 149.957,24.719 142.676,17.432 125.244,0 96.116,12.944 121.641,38.468 
			128.924,45.748 159.666,76.486 		"/>
		<polygon style="fill:#B9BE63;" points="328.922,47.366 351.582,24.719 358.862,17.432 376.294,0 405.416,12.944 379.891,38.468 
			372.611,45.748 341.866,76.486 		"/>
	</g>
	<rect x="99.809" y="276.765" style="fill:#F7F7F7;" width="301.923" height="109.126"/>
	<rect x="99.809" y="276.765" style="fill:#D6D7D7;" width="301.923" height="18.191"/>
	<polygon style="fill:#C3C4C4;" points="454.853,370.135 46.682,370.135 0,512 501.532,512 	"/>
	<g>
		<rect x="138.267" y="102.163" style="fill:#F7F7F7;" width="225.004" height="109.126"/>
		<rect x="138.267" y="102.163" style="fill:#C3C4C4;" width="225.004" height="18.191"/>
		<polygon style="fill:#5E5B58;" points="352.248,19.307 255.195,19.307 223.995,19.307 149.284,19.307 114.624,109.443 
			223.995,109.443 255.195,109.443 386.914,109.443 		"/>
	</g>
	<polygon style="fill:#5E5B58;" points="403.6,189.467 97.942,189.467 61.566,284.039 439.975,284.039 	"/>
	<g>
		<rect x="277.451" y="137.323" style="fill:#C3C4C4;" width="29.095" height="29.102"/>
		<rect x="194.991" y="137.323" style="fill:#C3C4C4;" width="29.102" height="29.102"/>
	</g>
	<g>
		<rect x="270.165" y="309.503" style="fill:#C3C4C4;" width="29.102" height="29.109"/>
		<rect x="202.265" y="309.503" style="fill:#C3C4C4;" width="29.102" height="29.109"/>
		<rect x="134.366" y="309.503" style="fill:#C3C4C4;" width="29.102" height="29.109"/>
		<rect x="338.071" y="309.503" style="fill:#C3C4C4;" width="29.095" height="29.109"/>
	</g>
	<polygon style="opacity:0.1;fill:#231815;" points="255.195,512 501.532,512 454.853,370.135 401.732,370.135 401.732,294.956 
		401.732,284.039 439.975,284.039 403.6,189.467 363.271,189.467 363.271,120.354 363.271,109.443 386.914,109.443 365.251,53.108 
		372.611,45.748 379.891,38.468 405.416,12.944 376.294,0 358.862,17.432 353.569,22.725 352.248,19.307 255.195,19.307 	"/>
</g>
</svg>